<svg width="150" height="149" viewBox="0 0 150 149" fill="none" xmlns="http://www.w3.org/2000/svg">
<g clip-path="url(#clip0)">
<g filter="url(#filter0_d)">
<path d="M30.8795 15.2839C22.1133 21.8652 14.8419 30.22 9.56639 39.7725L60.4312 1.80425C49.7674 4.14684 39.685 8.74579 30.8795 15.2839ZM3.41204 54.1157C2.25072 57.9356 1.39579 61.8339 0.855381 65.7733L87.827 0.852915C83.8902 0.254359 79.9038 -0.0300172 75.9056 0.00249554L3.41204 54.1157ZM0 76.161C0.0120715 79.2704 0.220162 82.3712 0.623054 85.4451L106.729 6.24162C103.874 4.99561 100.938 3.93097 97.9389 3.05401L0 76.161ZM2.22263 94.0003C2.8907 96.686 3.71066 99.3288 4.67867 101.916L121.362 14.8176C119.164 13.1486 116.872 11.6051 114.494 10.1944L2.22263 94.0003ZM7.8885 109.269C9.05827 111.622 10.3551 113.909 11.7736 116.119L132.919 25.6887C131.221 23.6892 129.414 21.7836 127.506 19.98L7.8885 109.269ZM16.4211 122.399C18.0883 124.419 19.8648 126.347 21.7431 128.175L141.719 38.6188C140.51 36.2915 139.177 34.0328 137.723 31.8522L16.4211 122.399ZM27.7734 133.423C29.9467 135.108 32.216 136.669 34.5706 138.098L147.652 53.6883C146.94 51.0314 146.079 48.4195 145.072 45.8649L27.7734 133.423ZM42.2151 142.141C45.0288 143.414 47.924 144.508 50.8838 145.42L150 71.4339C149.976 68.332 149.757 65.2395 149.344 62.1744L42.2151 142.141ZM60.7675 147.791C64.6414 148.426 68.5672 148.755 72.5085 148.776L147.127 93.077C148.225 89.2938 149.023 85.4382 149.514 81.5458L60.7675 147.791ZM87.2441 147.526C96.9374 145.758 106.235 142.13 114.611 136.847L123.175 130.455C130.863 123.855 137.179 115.826 141.749 106.841L87.2441 147.526Z" fill="#FD9B58"/>
<path d="M10.2366 39.0171C7.80571 43.5068 5.84665 48.2363 4.39087 53.1299L74.9128 0.488423C69.8356 0.478653 64.7709 0.992223 59.799 2.02099L10.2366 39.0171ZM1.97809 64.6801C1.5603 68.0508 1.37541 71.4463 1.42475 74.8424L96.6534 3.75845C93.4102 2.74623 90.1011 1.95889 86.7495 1.40206L1.97809 64.6801ZM2.0644 84.1141C2.45639 86.9772 3.016 89.8148 3.74035 92.6123L113.078 10.9967C110.603 9.50577 108.044 8.16121 105.412 6.96998L2.0644 84.1141ZM6.23408 100.5C7.17488 103.004 8.25099 105.455 9.45764 107.843L125.976 20.8672C124.05 19.0181 122.026 17.2747 119.912 15.6447L6.23408 100.5ZM13.3584 114.68C14.1626 115.954 15.0056 117.202 15.8861 118.424C16.5692 119.288 17.2716 120.137 17.9927 120.97L136.19 32.7412C135.583 31.8224 134.956 30.9173 134.309 30.0265C133.377 28.8429 132.408 27.6881 131.405 26.5637L13.3584 114.68ZM23.2821 126.771C25.1849 128.635 27.1871 130.395 29.2799 132.043L143.578 46.7248C142.596 44.2481 141.48 41.8264 140.236 39.4703L23.2821 126.771ZM36.0182 136.763C38.4632 138.273 40.9941 139.639 43.5981 140.854L148.01 62.915C147.585 60.073 146.995 57.2581 146.243 54.4848L36.0182 136.763ZM52.1385 144.228C55.3511 145.259 58.6306 146.068 61.9538 146.651L148.374 82.1419C148.751 78.7961 148.899 75.4284 148.816 72.0624L52.1385 144.228ZM73.3365 147.903C78.1776 148.03 83.0194 147.682 87.7923 146.862L141.002 107.143C143.194 102.775 144.947 98.2006 146.236 93.4868L73.3365 147.903ZM114.644 136.567C116.234 135.583 117.786 134.539 119.296 133.437C120.632 132.398 121.932 131.314 123.194 130.185L114.644 136.567Z" fill="#FD9B58"/>
</g>
<g filter="url(#filter1_d)">
<path d="M22.2213 50.8302L21.4847 50.5672C22.0459 43.3068 24.1767 36.3796 27.877 29.7856L30.5339 30.417C30.3761 30.6099 30.227 30.8028 30.0867 30.9957C29.9464 31.1886 29.8149 31.3815 29.6921 31.5744L29.166 32.3636L29.4028 33.258C31.0863 39.6415 33.7695 45.1307 37.4523 49.7254L34.8218 50.4357C33.4363 48.1383 32.3841 46.218 31.6651 44.6747C30.2095 41.5531 29.1836 38.2123 28.5873 34.6522L28.4032 33.6L28.1664 33.9946C25.4657 38.4841 23.484 44.096 22.2213 50.8302Z" fill="white"/>
<path d="M43.418 50.8302L42.6288 50.5935C42.5411 49.436 42.8568 47.2614 43.5758 44.0697L43.7337 43.3594H43.7073C42.129 43.3594 40.6559 43.1227 39.288 42.6492L39.2617 41.9126C39.9807 42.0003 40.7348 42.0792 41.524 42.1493C42.3131 42.202 43.1374 42.237 43.9967 42.2546L44.3387 40.9919C45.7417 35.836 47.2762 32.1005 48.9422 29.7856L51.678 30.3907C51.5552 30.566 51.4237 30.759 51.2834 30.9694C51.1606 31.1798 51.0116 31.4078 50.8362 31.6534L50.4679 32.2321L50.4942 32.3373C51.0554 34.6171 51.4763 36.1867 51.7569 37.046C52.0024 37.8527 52.2567 38.6068 52.5198 39.3083C52.8004 39.9923 53.0897 40.6148 53.3879 41.176L53.4405 41.3076H53.5194C54.9925 40.9919 56.641 40.5272 58.4649 39.9134L58.307 42.3861C57.4302 42.7193 56.2727 42.9824 54.8347 43.1753L54.4401 43.2279V43.2542C55.0539 44.4818 56.4481 46.6652 58.6227 49.8043L55.8606 50.4357C54.6681 48.7696 53.6422 46.7879 52.7828 44.4906L52.3882 43.4383L52.0726 43.4646C51.6517 43.4997 51.2133 43.526 50.7573 43.5435C50.3013 43.5611 49.8278 43.5699 49.3368 43.5699C48.6002 43.5699 47.9776 43.5699 47.4691 43.5699C46.978 43.5523 46.601 43.5348 46.3379 43.5172L45.1542 43.4383L44.8648 44.3853C44.5842 45.3148 44.3211 46.3232 44.0756 47.4105C43.8301 48.4803 43.6109 49.6202 43.418 50.8302ZM46.3116 40.229L45.5487 42.2546H46.3642C48.0127 42.2546 49.5911 42.0967 51.0993 41.7811L51.7306 41.6495L51.1519 39.8607C50.9765 39.3697 50.8187 38.8611 50.6784 38.335C50.5381 37.7914 50.3978 37.2302 50.2575 36.6514C50.1873 36.3182 50.1084 35.9061 50.0207 35.4151C49.933 34.924 49.819 34.3453 49.6788 33.6789L49.6524 33.5474L49.2842 34.1524C48.0566 36.2218 47.0657 38.2473 46.3116 40.229Z" fill="white"/>
<path d="M63.8682 50.8302H63.1317C63.6052 47.5683 63.8419 44.5782 63.8419 41.86C63.8419 38.563 63.4737 35.4414 62.7371 32.4951L62.6582 32.1795L62.3425 32.1006C62.1671 32.0655 61.9479 32.0129 61.6849 31.9427C61.4218 31.8726 61.1061 31.7936 60.7379 31.706V30.9957L62.4214 31.2588L62.3951 31.1535C62.3776 31.1185 62.3425 30.9957 62.2899 30.7853C62.2373 30.5573 62.1496 30.2416 62.0268 29.8383L64.6048 30.1276C64.6223 30.2679 64.6486 30.4521 64.6837 30.68C64.7188 30.908 64.7626 31.1798 64.8152 31.4955L64.8415 31.5218L65.4203 31.5744C66.8057 31.6972 68.1035 31.7673 69.3135 31.7849C70.5411 31.7849 71.6898 31.7235 72.7596 31.6007L74.2064 31.4429L74.4168 30.075L76.9948 29.7856C76.9597 29.9259 76.9071 30.1101 76.837 30.3381L76.6002 31.1009L77.7051 30.8905C78.0383 30.8203 78.3978 30.7327 78.7836 30.6274C79.187 30.5222 79.6342 30.3994 80.1252 30.2591L79.8621 32.6267C78.8099 32.8196 77.8278 32.9511 76.9159 33.0213L76.153 33.1002L76.0215 33.7578C75.5129 36.4059 75.2586 39.019 75.2586 41.5969C75.2586 42.9297 75.32 44.3678 75.4428 45.9111C75.5831 47.4368 75.776 49.059 76.0215 50.7776H75.2849C74.1801 46.7265 73.6277 42.6228 73.6277 38.4665C73.6277 37.4845 73.654 36.5638 73.7066 35.7044C73.7592 34.8276 73.8469 34.0121 73.9696 33.258V33.2054L73.7066 33.2317C72.6017 33.3369 71.19 33.3282 69.4714 33.2054C67.7878 33.1002 66.455 32.9423 65.4729 32.7319L64.9731 32.6267L65.052 33.3106C65.1748 34.2927 65.2624 35.2572 65.3151 36.2042C65.3677 37.1337 65.394 38.0369 65.394 38.9137C65.394 43.1051 64.8854 47.0773 63.8682 50.8302Z" fill="white"/>
<path d="M83.1604 50.8302L83.6865 47.4894L83.9233 45.2271C84.0285 44.2275 84.0811 43.1051 84.0811 41.86C84.0811 38.072 83.4673 34.0472 82.2397 29.7856L85.7647 30.2591C86.0804 32.3285 86.2382 34.3716 86.2382 36.3884C86.2382 39.3872 85.8173 42.8508 84.9755 46.7792L84.8966 47.1474L85.2912 47.0685C85.677 46.9808 86.1593 46.9019 86.738 46.8318C87.3167 46.7616 87.9919 46.6915 88.7635 46.6213C89.8684 46.5161 90.9294 46.4635 91.9465 46.4635C92.1219 46.4635 92.3762 46.4723 92.7094 46.4898C93.0426 46.5073 93.2969 46.5161 93.4723 46.5161H93.5249V46.3846C93.6126 45.6655 93.674 44.9728 93.709 44.3064C93.7616 43.6225 93.7879 42.9736 93.7879 42.3598C93.7879 40.3255 93.4021 37.2214 92.6305 33.0476L95.7346 33.5737C95.7346 33.8718 95.7346 34.1962 95.7346 34.547C95.7521 34.8802 95.7696 35.2485 95.7872 35.6518V36.3095C95.7872 39.2031 95.4014 42.2896 94.6297 45.5691L94.393 46.5424H94.6297C96.9446 46.5424 99.4875 46.8405 102.258 47.4368L103.021 47.5946L103.205 45.648C103.276 44.9991 103.319 44.3941 103.337 43.8329C103.372 43.2542 103.39 42.7193 103.39 42.2283C103.39 38.4578 102.776 34.4418 101.548 30.1802L105.073 30.6537C105.389 32.7757 105.547 34.8276 105.547 36.8093C105.547 40.229 105.117 43.6926 104.258 47.2L104.1 47.8577L105.678 48.2523C105.731 48.2698 105.818 48.2961 105.941 48.3312C106.064 48.3487 106.222 48.3926 106.415 48.4627L107.441 48.8047L107.414 49.8043C107.099 49.7166 106.704 49.6377 106.231 49.5676C106.055 49.5325 105.827 49.4974 105.547 49.4623C105.266 49.4097 104.933 49.3571 104.547 49.3045L103.758 49.2256L103.337 50.6724L102.574 50.6461L102.811 49.0941L101.601 48.9625C99.6717 48.7521 97.9267 48.6469 96.3659 48.6469C91.8238 48.6469 87.422 49.3747 83.1604 50.8302Z" fill="white"/>
<path d="M113.704 50.8302L112.914 50.5935C112.827 49.436 113.142 47.2614 113.861 44.0697L114.019 43.3594H113.993C112.415 43.3594 110.942 43.1227 109.574 42.6492L109.547 41.9126C110.266 42.0003 111.02 42.0792 111.81 42.1493C112.599 42.202 113.423 42.237 114.282 42.2546L114.624 40.9919C116.027 35.836 117.562 32.1005 119.228 29.7856L121.964 30.3907C121.841 30.566 121.709 30.759 121.569 30.9694C121.446 31.1798 121.297 31.4078 121.122 31.6534L120.754 32.2321L120.78 32.3373C121.341 34.6171 121.762 36.1867 122.043 37.046C122.288 37.8527 122.542 38.6068 122.805 39.3083C123.086 39.9923 123.375 40.6148 123.674 41.176L123.726 41.3076H123.805C125.278 40.9919 126.927 40.5272 128.751 39.9134L128.593 42.3861C127.716 42.7193 126.558 42.9824 125.12 43.1753L124.726 43.2279V43.2542C125.34 44.4818 126.734 46.6652 128.908 49.8043L126.146 50.4357C124.954 48.7696 123.928 46.7879 123.069 44.4906L122.674 43.4383L122.358 43.4646C121.937 43.4997 121.499 43.526 121.043 43.5435C120.587 43.5611 120.113 43.5699 119.622 43.5699C118.886 43.5699 118.263 43.5699 117.755 43.5699C117.264 43.5523 116.887 43.5348 116.624 43.5172L115.44 43.4383L115.15 44.3853C114.87 45.3148 114.607 46.3232 114.361 47.4105C114.116 48.4803 113.897 49.6202 113.704 50.8302ZM116.597 40.229L115.834 42.2546H116.65C118.298 42.2546 119.877 42.0967 121.385 41.7811L122.016 41.6495L121.438 39.8607C121.262 39.3697 121.104 38.8611 120.964 38.335C120.824 37.7914 120.683 37.2302 120.543 36.6514C120.473 36.3182 120.394 35.9061 120.306 35.4151C120.219 34.924 120.105 34.3453 119.964 33.6789L119.938 33.5474L119.57 34.1524C118.342 36.2218 117.351 38.2473 116.597 40.229Z" fill="white"/>
<path d="M67.3689 74.2797C66.548 73.1108 65.9009 71.9976 65.4278 70.9401C64.9686 69.8825 64.739 68.7902 64.739 67.6631C64.739 65.2141 65.5322 63.2381 67.1185 61.7353C68.7048 60.2186 70.7781 59.4602 73.3385 59.4602C75.6344 59.4602 77.5338 60.1629 79.0367 61.5683C80.5395 62.9598 81.2909 64.6922 81.2909 66.7656C81.2909 69.3538 79.8646 71.6497 77.012 73.6535L75.4257 74.7597L80.1012 80.124C80.8665 78.5933 81.2491 76.9166 81.2491 75.0937H87.1561C87.1561 79.1986 86.2098 82.4895 84.3174 84.9664L88.9511 90.2889H81.103L79.6837 88.6817C78.5148 89.3774 77.3182 89.8923 76.0936 90.2262C74.883 90.5602 73.5124 90.7272 71.9818 90.7272C68.9761 90.7272 66.5688 89.941 64.7599 88.3686C62.9509 86.7823 62.0465 84.702 62.0465 82.1277C62.0465 80.7223 62.4013 79.4491 63.111 78.3081C63.8345 77.167 65.233 75.8381 67.3063 74.3214L67.3689 74.2797ZM72.441 85.3003C73.6655 85.3003 74.8343 85.0151 75.9475 84.4446L70.4789 78.2246L70.2911 78.3498C69.4979 79.3238 69.1014 80.4231 69.1014 81.6477C69.1014 82.6634 69.4214 83.5262 70.0615 84.2358C70.7016 84.9455 71.4947 85.3003 72.441 85.3003ZM70.8129 67.5796C70.8129 68.5537 71.3417 69.7364 72.3992 71.1279L73.7977 70.2513C74.4378 69.8338 74.9039 69.4025 75.1961 68.9572C75.4883 68.5119 75.6344 67.9483 75.6344 67.2665C75.6344 66.6264 75.4118 66.0698 74.9665 65.5967C74.5212 65.1236 73.9716 64.8871 73.3176 64.8871C72.5384 64.8871 71.9261 65.1375 71.4808 65.6385C71.0355 66.1255 70.8129 66.7725 70.8129 67.5796Z" fill="white"/>
<path d="M53.0886 111.906C53.0287 113.208 52.6776 114.36 52.0354 115.362C51.3931 116.355 50.4897 117.126 49.3252 117.674C48.1692 118.222 46.8462 118.496 45.3562 118.496C42.8986 118.496 40.9633 117.695 39.5504 116.094C38.1375 114.492 37.4311 112.232 37.4311 109.312V108.387C37.4311 106.554 37.7479 104.953 38.3816 103.583C39.0238 102.204 39.9443 101.143 41.1432 100.398C42.342 99.644 43.7292 99.2672 45.3048 99.2672C47.574 99.2672 49.398 99.8666 50.7766 101.065C52.1553 102.256 52.9388 103.9 53.1272 105.998H48.6316C48.5973 104.859 48.3104 104.041 47.771 103.544C47.2315 103.048 46.4094 102.799 45.3048 102.799C44.183 102.799 43.361 103.219 42.8386 104.058C42.3163 104.897 42.0423 106.238 42.0166 108.079V109.402C42.0166 111.397 42.2649 112.823 42.7616 113.679C43.2668 114.535 44.1317 114.963 45.3562 114.963C46.3923 114.963 47.1844 114.719 47.7324 114.231C48.2805 113.743 48.5716 112.968 48.6059 111.906H53.0886Z" fill="white"/>
<path d="M62.478 107.655V107.668L65.5736 99.537H70.3261L64.0322 114.372C63.3558 115.871 62.5936 116.929 61.7459 117.545C60.9067 118.153 59.922 118.474 58.7916 118.508H57.8797L57.1861 118.483L57.109 114.989C57.2118 115.023 57.5115 115.04 58.0081 115.04C58.6932 115.04 59.2069 114.925 59.5495 114.694C59.9006 114.454 60.1831 113.996 60.3972 113.319L60.6156 112.703L53.8593 99.537H58.6503L62.478 107.655Z" fill="white"/>
<path d="M76.286 99.537V114.771H80.9357V99.537H85.4442V114.771H90.0426V99.537H94.5253V118.239H71.7775V99.537H76.286Z" fill="white"/>
<path d="M108.269 99.537H112.778V118.239H108.269V106.447L101.551 118.239H97.0429V99.537H101.551V111.341L108.269 99.537Z" fill="white"/>
</g>
</g>
<defs>
<filter id="filter0_d" x="-4" y="-1.00001" width="158" height="156.776" filterUnits="userSpaceOnUse" color-interpolation-filters="sRGB">
<feFlood flood-opacity="0" result="BackgroundImageFix"/>
<feColorMatrix in="SourceAlpha" type="matrix" values="0 0 0 0 0 0 0 0 0 0 0 0 0 0 0 0 0 0 127 0"/>
<feOffset dy="3"/>
<feGaussianBlur stdDeviation="2"/>
<feColorMatrix type="matrix" values="0 0 0 0 0 0 0 0 0 0 0 0 0 0 0 0 0 0 0.1 0"/>
<feBlend mode="normal" in2="BackgroundImageFix" result="effect1_dropShadow"/>
<feBlend mode="normal" in="SourceGraphic" in2="effect1_dropShadow" result="shape"/>
</filter>
<filter id="filter1_d" x="17.4847" y="29.7856" width="115.424" height="96.7228" filterUnits="userSpaceOnUse" color-interpolation-filters="sRGB">
<feFlood flood-opacity="0" result="BackgroundImageFix"/>
<feColorMatrix in="SourceAlpha" type="matrix" values="0 0 0 0 0 0 0 0 0 0 0 0 0 0 0 0 0 0 127 0"/>
<feOffset dy="4"/>
<feGaussianBlur stdDeviation="2"/>
<feColorMatrix type="matrix" values="0 0 0 0 0 0 0 0 0 0 0 0 0 0 0 0 0 0 0.3 0"/>
<feBlend mode="normal" in2="BackgroundImageFix" result="effect1_dropShadow"/>
<feBlend mode="normal" in="SourceGraphic" in2="effect1_dropShadow" result="shape"/>
</filter>
<clipPath id="clip0">
<rect width="150" height="148.776" fill="white"/>
</clipPath>
</defs>
</svg>
