<svg width="150" height="149" viewBox="0 0 150 149" fill="none" xmlns="http://www.w3.org/2000/svg">
<g clip-path="url(#clip0)">
<path d="M30.8795 15.2839C22.1133 21.8652 14.8419 30.22 9.56639 39.7725L60.4312 1.80425C49.7674 4.14684 39.685 8.74579 30.8795 15.2839ZM3.41204 54.1157C2.25072 57.9356 1.39579 61.8338 0.855381 65.7733L87.827 0.852914C83.8902 0.254358 79.9038 -0.0300182 75.9056 0.00249459L3.41204 54.1157ZM0 76.161C0.0120715 79.2704 0.220162 82.3711 0.623054 85.4451L106.729 6.24162C103.874 4.99561 100.938 3.93097 97.9389 3.05401L0 76.161ZM2.22263 94.0003C2.8907 96.686 3.71066 99.3288 4.67867 101.916L121.362 14.8176C119.164 13.1485 116.872 11.6051 114.494 10.1944L2.22263 94.0003ZM7.8885 109.269C9.05827 111.622 10.3551 113.909 11.7736 116.119L132.919 25.6887C131.221 23.6892 129.414 21.7836 127.506 19.98L7.8885 109.269ZM16.4211 122.399C18.0883 124.419 19.8648 126.347 21.7431 128.175L141.719 38.6188C140.51 36.2915 139.177 34.0328 137.723 31.8522L16.4211 122.399ZM27.7734 133.423C29.9467 135.108 32.216 136.669 34.5706 138.098L147.652 53.6882C146.94 51.0313 146.079 48.4195 145.072 45.8649L27.7734 133.423ZM42.2151 142.141C45.0288 143.413 47.924 144.508 50.8838 145.42L150 71.4339C149.976 68.332 149.757 65.2395 149.344 62.1744L42.2151 142.141ZM60.7675 147.791C64.6414 148.426 68.5672 148.755 72.5085 148.776L147.127 93.077C148.225 89.2938 149.023 85.4382 149.514 81.5458L60.7675 147.791ZM87.2441 147.526C96.9374 145.758 106.235 142.13 114.611 136.847L123.175 130.455C130.863 123.855 137.179 115.826 141.749 106.84L87.2441 147.526Z" fill="#FD9B58"/>
<path d="M10.2366 39.0171C7.80571 43.5068 5.84665 48.2363 4.39087 53.1299L74.9128 0.488422C69.8356 0.478652 64.7709 0.992221 59.799 2.02099L10.2366 39.0171ZM1.97809 64.6801C1.5603 68.0508 1.37541 71.4463 1.42475 74.8424L96.6534 3.75845C93.4102 2.74622 90.1011 1.95889 86.7495 1.40206L1.97809 64.6801ZM2.0644 84.1141C2.45639 86.9771 3.016 89.8147 3.74035 92.6123L113.078 10.9967C110.603 9.50576 108.044 8.1612 105.412 6.96998L2.0644 84.1141ZM6.23408 100.5C7.17488 103.004 8.25099 105.455 9.45764 107.843L125.976 20.8672C124.05 19.0181 122.026 17.2747 119.912 15.6447L6.23408 100.5ZM13.3584 114.68C14.1626 115.954 15.0056 117.202 15.8861 118.424C16.5692 119.288 17.2716 120.137 17.9927 120.97L136.19 32.7412C135.583 31.8224 134.956 30.9173 134.309 30.0265C133.377 28.8429 132.408 27.6881 131.405 26.5637L13.3584 114.68ZM23.2821 126.771C25.1849 128.635 27.1871 130.395 29.2799 132.043L143.578 46.7248C142.596 44.2481 141.48 41.8264 140.236 39.4703L23.2821 126.771ZM36.0182 136.763C38.4632 138.273 40.9941 139.639 43.5981 140.854L148.01 62.915C147.585 60.073 146.995 57.2581 146.243 54.4848L36.0182 136.763ZM52.1385 144.228C55.3511 145.259 58.6306 146.068 61.9538 146.65L148.374 82.1419C148.751 78.7961 148.899 75.4284 148.816 72.0624L52.1385 144.228ZM73.3365 147.903C78.1776 148.03 83.0194 147.682 87.7923 146.862L141.002 107.143C143.194 102.775 144.947 98.2006 146.236 93.4867L73.3365 147.903ZM114.644 136.567C116.234 135.583 117.786 134.539 119.296 133.437C120.632 132.398 121.932 131.313 123.194 130.185L114.644 136.567Z" fill="#FD9B58"/>
<path d="M41.2967 115.647L41.4681 113.883L42.1048 113.761L42.0068 113.443C41.0763 110.439 40.611 107.043 40.611 103.256C40.611 101.639 40.7579 99.7049 41.0518 97.452L41.1253 96.8888L41.1497 96.3746C43.3373 96.7664 45.2474 96.9623 46.8799 96.9623C49.0512 96.9623 51.1 96.6603 53.0264 96.0562L52.757 97.8194C51.8591 97.95 51.051 98.0479 50.3327 98.1132C49.6307 98.1785 49.0185 98.2112 48.4961 98.2112C47.0921 98.2112 45.6229 98.0479 44.0883 97.7214L43.8679 97.6724L43.6965 98.3826C42.8149 102.023 42.3741 105.084 42.3741 107.566C42.3741 109.247 42.5211 111.002 42.8149 112.83L42.9374 113.59L43.2067 113.541C43.7291 113.459 44.2679 113.394 44.8229 113.345C45.378 113.296 45.9412 113.271 46.5126 113.271C48.6512 113.271 50.7571 113.598 52.8305 114.251V114.765C50.8714 114.618 49.3858 114.545 48.3737 114.545C45.8596 114.545 43.5006 114.912 41.2967 115.647Z" fill="white"/>
<path d="M55.6445 115.647L54.9833 115.279C57.2198 112.455 59.1462 109.549 60.7624 106.562L60.8114 106.513L60.2482 105.802C58.1096 103.109 56.6321 100.187 55.8159 97.0357L57.4566 96.0562C57.8973 99.5335 58.9177 102.594 60.5175 105.239L61.0318 106.072L61.3991 105.362C62.8684 102.521 63.9458 99.5253 64.6315 96.3746L66.7375 97.9173C64.2723 104.79 60.5747 110.7 55.6445 115.647Z" fill="white"/>
<path d="M69.543 115.647L70.0328 112.537L70.2532 110.431C70.3511 109.5 70.4001 108.455 70.4001 107.296C70.4001 103.77 69.8287 100.023 68.686 96.0562L71.9673 96.497C72.2612 98.4234 72.4081 100.325 72.4081 102.203C72.4081 104.994 72.0163 108.219 71.2327 111.875L71.1592 112.218L71.5266 112.145C71.8857 112.063 72.3347 111.99 72.8734 111.924C73.4121 111.859 74.0406 111.794 74.7589 111.728C75.7874 111.631 76.7751 111.582 77.722 111.582C77.8852 111.582 78.1219 111.59 78.4321 111.606C78.7423 111.622 78.979 111.631 79.1423 111.631H79.1913V111.508C79.2729 110.839 79.33 110.194 79.3627 109.574C79.4116 108.937 79.4361 108.333 79.4361 107.761C79.4361 105.868 79.077 102.978 78.3587 99.0927L81.2482 99.5825C81.2482 99.86 81.2482 100.162 81.2482 100.489C81.2646 100.799 81.2809 101.142 81.2972 101.517V102.129C81.2972 104.823 80.9381 107.696 80.2197 110.749L79.9994 111.655H80.2197C82.3747 111.655 84.7418 111.933 87.3212 112.488L88.0314 112.635L88.2028 110.822C88.2681 110.218 88.3089 109.655 88.3252 109.133C88.3579 108.594 88.3742 108.096 88.3742 107.639C88.3742 104.129 87.8028 100.391 86.66 96.4236L89.9414 96.8643C90.2353 98.8397 90.3822 100.75 90.3822 102.594C90.3822 105.778 89.9822 109.002 89.1823 112.267L89.0354 112.879L90.5046 113.247C90.5536 113.263 90.6352 113.288 90.7495 113.32C90.8638 113.336 91.0107 113.377 91.1903 113.443L92.1453 113.761L92.1208 114.691C91.827 114.61 91.4597 114.536 91.0189 114.471C90.8556 114.438 90.6434 114.406 90.3822 114.373C90.121 114.324 89.8108 114.275 89.4517 114.226L88.717 114.153L88.3252 115.5L87.6151 115.475L87.8355 114.03L86.709 113.908C84.9132 113.712 83.2889 113.614 81.8359 113.614C77.6077 113.614 73.5101 114.292 69.543 115.647Z" fill="white"/>
<path d="M107.305 115.647L106.595 115.622C106.187 113.892 105.885 112.177 105.689 110.48C105.493 108.765 105.395 107.068 105.395 105.386C105.395 104.586 105.42 103.811 105.469 103.06C105.485 102.815 105.51 102.513 105.542 102.154C105.575 101.778 105.616 101.354 105.665 100.88L105.689 100.733L105.616 100.929C104.506 103.868 103.036 106.864 101.208 109.916C100.522 111.059 99.8774 112.055 99.2734 112.904C98.6694 113.736 98.1061 114.422 97.5837 114.961L94.4003 114.177C94.2044 108.316 95.4206 102.276 98.049 96.0562L98.7347 96.1542C97.5429 100.072 96.9471 103.917 96.9471 107.688C96.9471 108.308 96.9552 108.912 96.9715 109.5C97.0042 110.071 97.0532 110.635 97.1185 111.19L97.1674 111.655L97.9755 110.822C99.4448 109.304 100.824 107.459 102.114 105.288C102.587 104.488 103.085 103.59 103.608 102.594C104.13 101.599 104.677 100.497 105.248 99.2886L106.277 97.1337L109.558 96.9378C107.877 101.542 107.036 106.194 107.036 110.896C107.036 111.582 107.061 112.324 107.11 113.124C107.158 113.908 107.224 114.749 107.305 115.647Z" fill="white"/>
<path d="M65.3186 79.8605C65.3186 78.605 65.6654 77.4512 66.3589 76.399C67.0644 75.3468 68.4035 74.1212 70.3764 72.7222C69.2166 71.3113 68.4394 70.1754 68.0448 69.3145C67.6502 68.4536 67.453 67.5987 67.453 66.7497C67.453 64.7649 68.0389 63.2105 69.2106 62.0865C70.3824 60.9626 71.9727 60.4006 73.9815 60.4006C75.775 60.4006 77.2577 60.9267 78.4295 61.9789C79.6012 63.0191 80.1871 64.3344 80.1871 65.9247C80.1871 66.9769 79.9181 67.9514 79.38 68.8482C78.8539 69.733 77.9273 70.6656 76.6 71.6461L74.6809 73.063L80.492 80.004C81.3051 78.4496 81.7116 76.7218 81.7116 74.8207H84.7069C84.7069 77.8697 83.9715 80.3986 82.5008 82.4074L86.2314 86.8733H82.2497L80.51 84.8107C79.6251 85.5999 78.5849 86.2037 77.3892 86.6222C76.2055 87.0287 74.9978 87.232 73.7662 87.232C71.2194 87.232 69.1748 86.5564 67.6323 85.2053C66.0899 83.8542 65.3186 82.0726 65.3186 79.8605ZM73.7662 84.5237C75.5239 84.5237 77.1321 83.8542 78.5909 82.515L72.2238 74.8924L71.6319 75.3229C69.6351 76.7936 68.6367 78.3061 68.6367 79.8605C68.6367 81.2715 69.0911 82.4014 69.9998 83.2503C70.9205 84.0993 72.176 84.5237 73.7662 84.5237ZM70.771 66.6421C70.771 67.79 71.4765 69.2248 72.8874 70.9466L75.0038 69.458C75.8169 68.884 76.3729 68.34 76.6718 67.8258C76.9707 67.2997 77.1202 66.666 77.1202 65.9247C77.1202 65.1236 76.8212 64.46 76.2234 63.9339C75.6255 63.3958 74.8723 63.1268 73.9635 63.1268C72.9831 63.1268 72.2059 63.4616 71.6319 64.1311C71.058 64.7888 70.771 65.6258 70.771 66.6421Z" fill="white"/>
<path d="M25.6857 52.5903L25 52.3454C25.5224 45.5868 27.5059 39.1383 30.9506 33L33.4238 33.5877C33.2769 33.7673 33.1381 33.9469 33.0075 34.1264C32.8769 34.306 32.7545 34.4856 32.6402 34.6652L32.1505 35.3998L32.3708 36.2324C33.9381 42.1748 36.4358 47.2846 39.8641 51.5618L37.4153 52.223C36.1257 50.0844 35.1461 48.2967 34.4768 46.8601C33.1218 43.9542 32.1668 40.8443 31.6117 37.5303L31.4403 36.5507L31.2199 36.9181C28.7058 41.0973 26.8611 46.3214 25.6857 52.5903Z" fill="white"/>
<path d="M45.4175 52.5903L44.6829 52.3699C44.6013 51.2924 44.8951 49.2681 45.5644 46.2969L45.7114 45.6357H45.6869C44.2176 45.6357 42.8463 45.4153 41.5729 44.9746L41.5484 44.2889C42.2178 44.3705 42.9198 44.444 43.6544 44.5093C44.389 44.5583 45.1563 44.5909 45.9563 44.6072L46.2746 43.4318C47.5806 38.6322 49.0091 35.1549 50.56 33L53.1067 33.5632C52.9924 33.7265 52.87 33.9061 52.7394 34.102C52.6251 34.2979 52.4863 34.5101 52.3231 34.7386L51.9803 35.2774L52.0048 35.3753C52.5272 37.4976 52.919 38.9587 53.1802 39.7586C53.4087 40.5096 53.6454 41.2116 53.8903 41.8646C54.1515 42.5013 54.4209 43.0808 54.6984 43.6032L54.7474 43.7257H54.8209C56.1922 43.4318 57.7267 42.9992 59.4246 42.4278L59.2776 44.7297C58.4614 45.0399 57.3839 45.2847 56.0453 45.4643L55.6779 45.5133V45.5378C56.2493 46.6805 57.5472 48.713 59.5715 51.6353L57.0003 52.223C55.8902 50.6721 54.9351 48.8273 54.1352 46.6887L53.7679 45.7092L53.474 45.7337C53.0822 45.7663 52.6741 45.7908 52.2496 45.8071C51.8252 45.8235 51.3844 45.8316 50.9273 45.8316C50.2416 45.8316 49.6621 45.8316 49.1886 45.8316C48.7315 45.8153 48.3806 45.799 48.1357 45.7827L47.0337 45.7092L46.7644 46.5908C46.5031 47.456 46.2583 48.3947 46.0297 49.4069C45.8012 50.4027 45.5971 51.4638 45.4175 52.5903ZM48.1112 42.7217L47.401 44.6072H48.1602C49.6947 44.6072 51.164 44.4603 52.568 44.1665L53.1557 44.044L52.617 42.3788C52.4537 41.9217 52.3068 41.4483 52.1762 40.9586C52.0456 40.4525 51.915 39.9301 51.7844 39.3913C51.7191 39.0812 51.6456 38.6975 51.564 38.2404C51.4823 37.7833 51.3762 37.2446 51.2456 36.6242L51.2211 36.5018L50.8783 37.065C49.7355 38.9914 48.8132 40.8769 48.1112 42.7217Z" fill="white"/>
<path d="M64.4545 52.5903H63.7689C64.2097 49.5538 64.43 46.7703 64.43 44.2399C64.43 41.1708 64.0872 38.2649 63.4016 35.5222L63.3281 35.2284L63.0342 35.1549C62.871 35.1223 62.6669 35.0733 62.422 35.008C62.1772 34.9427 61.8833 34.8692 61.5405 34.7876V34.1264L63.1077 34.3713L63.0832 34.2734C63.0669 34.2407 63.0342 34.1264 62.9853 33.9305C62.9363 33.7183 62.8547 33.4245 62.7404 33.049L65.1402 33.3183C65.1565 33.4489 65.181 33.6204 65.2137 33.8326C65.2463 34.0448 65.2871 34.2979 65.3361 34.5917L65.3606 34.6162L65.8993 34.6652C67.189 34.7795 68.3971 34.8448 69.5235 34.8611C70.6663 34.8611 71.7356 34.8039 72.7314 34.6897L74.0783 34.5427L74.2742 33.2694L76.674 33C76.6413 33.1306 76.5924 33.302 76.5271 33.5142L76.3067 34.2244L77.3352 34.0285C77.6453 33.9632 77.98 33.8816 78.3392 33.7836C78.7146 33.6857 79.1309 33.5714 79.588 33.4408L79.3432 35.6447C78.3636 35.8243 77.4494 35.9467 76.6005 36.012L75.8904 36.0855L75.7679 36.6977C75.2945 39.1628 75.0578 41.5952 75.0578 43.995C75.0578 45.2358 75.1149 46.5744 75.2292 48.0111C75.3598 49.4314 75.5394 50.9414 75.7679 52.5413H75.0823C74.0538 48.7702 73.5395 44.9501 73.5395 41.081C73.5395 40.1668 73.564 39.3097 73.613 38.5098C73.662 37.6935 73.7436 36.9344 73.8579 36.2324V36.1834L73.613 36.2079C72.5845 36.3059 71.2703 36.2977 69.6704 36.1834C68.1032 36.0855 66.8625 35.9385 65.9483 35.7426L65.483 35.6447L65.5565 36.2814C65.6708 37.1956 65.7524 38.0935 65.8014 38.975C65.8503 39.8403 65.8748 40.681 65.8748 41.4973C65.8748 45.399 65.4014 49.0967 64.4545 52.5903Z" fill="white"/>
<path d="M82.4135 52.5903L82.9033 49.4803L83.1237 47.3744C83.2216 46.4438 83.2706 45.399 83.2706 44.2399C83.2706 40.7137 82.6992 36.967 81.5564 33L84.8378 33.4408C85.1317 35.3672 85.2786 37.269 85.2786 39.1465C85.2786 41.9381 84.8868 45.1623 84.1032 48.8192L84.0297 49.162L84.397 49.0885C84.7562 49.0069 85.2051 48.9334 85.7439 48.8681C86.2826 48.8028 86.9111 48.7375 87.6294 48.6722C88.6579 48.5743 89.6456 48.5253 90.5925 48.5253C90.7557 48.5253 90.9924 48.5335 91.3026 48.5498C91.6128 48.5661 91.8495 48.5743 92.0128 48.5743H92.0617V48.4518C92.1434 47.7825 92.2005 47.1377 92.2331 46.5173C92.2821 45.8806 92.3066 45.2766 92.3066 44.7052C92.3066 42.8115 91.9475 39.9219 91.2291 36.0365L94.1187 36.5263C94.1187 36.8038 94.1187 37.1058 94.1187 37.4323C94.135 37.7425 94.1514 38.0853 94.1677 38.4608V39.073C94.1677 41.7667 93.8085 44.6399 93.0902 47.6927L92.8698 48.5988H93.0902C95.2452 48.5988 97.6123 48.8763 100.192 49.4314L100.902 49.5783L101.073 47.7662C101.139 47.1621 101.179 46.5989 101.196 46.0765C101.228 45.5378 101.245 45.0399 101.245 44.5828C101.245 41.0728 100.673 37.3343 99.5305 33.3673L102.812 33.8081C103.106 35.7835 103.253 37.6935 103.253 39.5383C103.253 42.7217 102.853 45.9459 102.053 49.211L101.906 49.8232L103.375 50.1905C103.424 50.2068 103.506 50.2313 103.62 50.2639C103.734 50.2803 103.881 50.3211 104.061 50.3864L105.016 50.7047L104.991 51.6353C104.697 51.5536 104.33 51.4802 103.889 51.4149C103.726 51.3822 103.514 51.3496 103.253 51.3169C102.991 51.2679 102.681 51.219 102.322 51.17L101.588 51.0965L101.196 52.4434L100.486 52.4189L100.706 50.9741L99.5795 50.8516C97.7837 50.6557 96.1594 50.5578 94.7064 50.5578C90.4782 50.5578 86.3805 51.2353 82.4135 52.5903Z" fill="white"/>
<path d="M110.846 52.5903L110.111 52.3699C110.03 51.2924 110.324 49.2681 110.993 46.2969L111.14 45.6357H111.115C109.646 45.6357 108.275 45.4153 107.001 44.9746L106.977 44.2889C107.646 44.3705 108.348 44.444 109.083 44.5093C109.818 44.5583 110.585 44.5909 111.385 44.6072L111.703 43.4318C113.009 38.6322 114.438 35.1549 115.988 33L118.535 33.5632C118.421 33.7265 118.298 33.9061 118.168 34.102C118.054 34.2979 117.915 34.5101 117.752 34.7386L117.409 35.2774L117.433 35.3753C117.956 37.4976 118.347 38.9587 118.609 39.7586C118.837 40.5096 119.074 41.2116 119.319 41.8646C119.58 42.5013 119.849 43.0808 120.127 43.6032L120.176 43.7257H120.249C121.621 43.4318 123.155 42.9992 124.853 42.4278L124.706 44.7297C123.89 45.0399 122.812 45.2847 121.474 45.4643L121.106 45.5133V45.5378C121.678 46.6805 122.976 48.713 125 51.6353L122.429 52.223C121.319 50.6721 120.364 48.8273 119.564 46.6887L119.196 45.7092L118.903 45.7337C118.511 45.7663 118.103 45.7908 117.678 45.8071C117.254 45.8235 116.813 45.8316 116.356 45.8316C115.67 45.8316 115.091 45.8316 114.617 45.8316C114.16 45.8153 113.809 45.799 113.564 45.7827L112.462 45.7092L112.193 46.5908C111.932 47.456 111.687 48.3947 111.458 49.4069C111.23 50.4027 111.026 51.4638 110.846 52.5903ZM113.54 42.7217L112.83 44.6072H113.589C115.123 44.6072 116.593 44.4603 117.996 44.1665L118.584 44.044L118.045 42.3788C117.882 41.9217 117.735 41.4483 117.605 40.9586C117.474 40.4525 117.343 39.9301 117.213 39.3913C117.148 39.0812 117.074 38.6975 116.992 38.2404C116.911 37.7833 116.805 37.2446 116.674 36.6242L116.65 36.5018L116.307 37.065C115.164 38.9914 114.242 40.8769 113.54 42.7217Z" fill="white"/>
</g>
<defs>
<clipPath id="clip0">
<rect width="150" height="148.776" fill="white"/>
</clipPath>
</defs>
</svg>
