<svg width="260" height="55" viewBox="0 0 260 55" fill="none" xmlns="http://www.w3.org/2000/svg">
<path d="M186.749 54.0677C185.034 52.9494 129.644 50.1573 124.822 50.9462C123.203 51.2111 121.74 50.9634 121.57 50.3957C121.382 49.7684 113.428 49.8734 101.295 50.6631C85.9886 51.6595 77.3628 51.6541 64.3297 50.64C54.9797 49.9124 40.5797 49.1714 32.3297 48.9934C24.0797 48.8154 16.9371 48.6265 16.4572 48.5737C15.9774 48.521 16.1402 47.7317 16.8191 46.8199C17.498 45.908 17.8065 44.4446 17.5047 43.5679C17.2029 42.6912 17.6311 41.685 18.4562 41.3321C21.1434 40.1826 18.8118 38.4451 14.5821 38.4451H10.4525L12.5993 36.2156C14.2283 34.5238 16.1428 33.982 20.5379 33.9691C24.6463 33.9569 25.8937 33.6379 24.8297 32.8714C24.0047 32.2771 21.9148 31.7831 20.1854 31.7737C18.0865 31.7623 15.9735 30.6449 13.8297 28.4124C12.0633 26.5731 10.1607 25.0682 9.60148 25.0682C9.01398 25.0682 9.11031 24.3623 9.82968 23.3961C10.891 21.9705 10.6142 21.724 7.95212 21.724C6.23478 21.724 4.82968 21.2767 4.82968 20.7301C4.82968 20.1834 3.59272 19.3901 2.08089 18.9671C-0.471232 18.2531 -0.538992 18.093 1.13389 16.7294C2.48234 15.6303 2.60784 15.111 1.63268 14.6658C0.806268 14.2884 1.18356 13.783 2.66421 13.2838C4.41538 12.6934 4.66527 12.2611 3.66421 11.5537C2.77658 10.9265 2.72388 10.605 3.50686 10.5936C4.23053 10.5836 4.53777 9.28821 4.30437 7.23235C3.92592 3.89897 3.94156 3.88787 9.12719 3.80978C12.5984 3.7575 13.683 3.44929 12.3864 2.88357C11.3176 2.41724 14.4676 2.17246 19.3864 2.33962L28.3297 2.64353L22.4987 1.31504C8.20996 -1.94042 148.981 1.44038 177.33 5.03349C195.531 7.34051 212.028 8.70989 223.33 8.85188C229.93 8.93482 240.413 9.68427 246.626 10.5174C255.929 11.7648 258.105 12.4124 258.957 14.1867C260.358 17.1052 259.625 17.6418 253.545 18.1472C250.677 18.3857 248.14 18.7883 247.909 19.042C247.678 19.2957 248.544 20.7554 249.833 22.2857L252.178 25.0682L248.254 25.0834C246.096 25.0912 243.328 25.3979 242.104 25.7638C240.277 26.3095 240.059 26.8074 240.889 28.5354C242.134 31.1288 244.399 31.2717 245.246 28.8102C245.593 27.8028 246.155 27.289 246.496 27.6685C246.836 28.048 246.562 29.1011 245.886 30.0087C245.21 30.9163 244.948 32.1825 245.303 32.8225C245.657 33.4625 245.498 33.9861 244.948 33.9861C244.398 33.9861 243.701 33.5413 243.4 32.9977C242.346 31.0972 231.263 29.3712 226.499 30.3656C224.478 30.7875 224.049 31.2255 224.999 31.8968C225.863 32.5073 225.044 32.8432 222.663 32.8543C220.646 32.8632 218.815 33.4794 218.592 34.2226C218.331 35.0961 216.445 35.4658 213.259 35.2682C208.538 34.9753 208.422 35.0366 210.521 36.7209C212.503 38.3122 213.538 38.3187 221.402 36.7901C231.17 34.8912 233.83 34.7132 233.83 35.958C233.83 37.4661 212.187 45.6756 206.04 46.4989C204.781 46.6676 203.809 47.2622 203.88 47.8202C204.079 49.3832 201.357 50.6923 198.972 50.1804C197.794 49.9275 196.83 50.1388 196.83 50.6502C196.83 51.1615 195.021 52.3868 192.809 53.373C188.162 55.4461 188.758 55.3777 186.749 54.0677ZM46.5797 2.00494C45.6172 1.72456 44.0422 1.72456 43.0797 2.00494C42.1172 2.28533 42.9047 2.51475 44.8297 2.51475C46.7547 2.51475 47.5422 2.28533 46.5797 2.00494ZM206.642 2.01163C207.364 1.68961 208.227 1.72922 208.559 2.09969C208.891 2.47012 208.3 2.73359 207.246 2.68518C206.081 2.63167 205.844 2.36754 206.642 2.0117V2.01163Z" fill="#FA4A4A"/>
</svg>
