<svg width="150" height="32" viewBox="0 0 150 32" fill="none" xmlns="http://www.w3.org/2000/svg">
<path d="M107.921 31.2455C106.93 30.5992 74.9208 28.9857 72.1344 29.4416C71.1987 29.5947 70.3528 29.4515 70.2547 29.1235C70.1463 28.761 65.5497 28.8216 58.5382 29.278C49.6924 29.8538 44.7077 29.8507 37.1759 29.2646C31.7725 28.8442 23.4508 28.416 18.6832 28.3131C13.9155 28.2102 9.78787 28.1011 9.51057 28.0706C9.23327 28.0401 9.32737 27.584 9.71969 27.057C10.112 26.53 10.2903 25.6844 10.1159 25.1777C9.94148 24.671 10.1889 24.0896 10.6658 23.8856C12.2187 23.2214 10.8713 22.2173 8.42694 22.2173H6.04049L7.28108 20.9289C8.22249 19.9512 9.32889 19.6381 11.8687 19.6306C14.243 19.6236 14.9639 19.4392 14.349 18.9962C13.8722 18.6528 12.6645 18.3673 11.6651 18.3619C10.4521 18.3553 9.23104 17.7095 7.99212 16.4194C6.97136 15.3565 5.8718 14.4868 5.54866 14.4868C5.20914 14.4868 5.26481 14.0789 5.68053 13.5205C6.29389 12.6967 6.13393 12.5542 4.5955 12.5542C3.60305 12.5542 2.79105 12.2957 2.79105 11.9798C2.79105 11.6639 2.07622 11.2055 1.20254 10.961C-0.272323 10.5484 -0.311481 10.4559 0.655269 9.66785C1.43453 9.03266 1.50706 8.7326 0.943518 8.47529C0.465939 8.25724 0.683973 7.96512 1.53963 7.67665C2.55163 7.33547 2.69604 7.08564 2.11753 6.67686C1.60457 6.31438 1.57412 6.12859 2.0266 6.12202C2.44481 6.11622 2.62236 5.36762 2.48748 4.17955C2.26877 2.2532 2.27781 2.24679 5.27457 2.20166C7.28059 2.17145 7.90736 1.99333 7.15806 1.6664C6.54041 1.39691 8.36078 1.25546 11.2033 1.35206L16.3716 1.52769L13.0019 0.759956C4.7445 -1.12136 86.0958 0.83239 102.478 2.90883C112.997 4.24205 122.53 5.03341 129.061 5.11547C132.875 5.16339 138.934 5.5965 142.524 6.07795C147.9 6.79881 149.158 7.17307 149.65 8.19842C150.46 9.88501 150.036 10.1951 146.523 10.4872C144.865 10.625 143.399 10.8577 143.266 11.0043C143.132 11.1509 143.632 11.9945 144.378 12.8788L145.733 14.4868L143.465 14.4956C142.218 14.5001 140.618 14.6774 139.911 14.8888C138.855 15.2041 138.729 15.4919 139.209 16.4905C139.928 17.9892 141.237 18.0718 141.727 16.6493C141.927 16.0671 142.252 15.7702 142.449 15.9895C142.646 16.2088 142.487 16.8174 142.097 17.3419C141.706 17.8664 141.554 18.5982 141.759 18.968C141.964 19.3378 141.872 19.6404 141.554 19.6404C141.236 19.6404 140.834 19.3834 140.66 19.0692C140.051 17.971 133.646 16.9735 130.893 17.5482C129.725 17.792 129.477 18.0451 130.026 18.4331C130.525 18.7859 130.052 18.9799 128.676 18.9863C127.511 18.9915 126.452 19.3476 126.324 19.7771C126.173 20.2819 125.083 20.4956 123.241 20.3813C120.513 20.2121 120.446 20.2475 121.659 21.2209C122.805 22.1404 123.403 22.1442 127.947 21.2609C133.592 20.1635 135.129 20.0606 135.129 20.78C135.129 21.6515 122.622 26.3957 119.07 26.8715C118.342 26.969 117.78 27.3126 117.821 27.6351C117.936 28.5383 116.363 29.2949 114.985 28.9991C114.304 28.8529 113.747 28.975 113.747 29.2705C113.747 29.566 112.702 30.2741 111.424 30.8441C108.738 32.0421 109.083 32.0026 107.921 31.2455V31.2455ZM26.9182 1.15865C26.362 0.996617 25.4518 0.996617 24.8956 1.15865C24.3393 1.32068 24.7944 1.45326 25.9069 1.45326C27.0193 1.45326 27.4744 1.32068 26.9182 1.15865ZM119.418 1.16251C119.835 0.976421 120.333 0.99931 120.525 1.2134C120.717 1.42747 120.376 1.57973 119.767 1.55175C119.094 1.52083 118.957 1.36819 119.418 1.16255V1.16251Z" fill="#F2A562"/>
</svg>
